# xmcd
# 
# Track frame offsets:
#     187
#     16737
#     29535
#     58957
#     82130
#     114010
#     135742
#     155055
#     184997
#     208802
#     242295
# 
# Disc length: 3659
# 
# Revision: 11
# Processed by: cddbd v1.5.2PL0 Copyright (c) Steve Scherf et al.
# Submitted via: fre:ac v1.0.17
# 
DISCID=940e490b
DTITLE=Eric Clapton - Backtrackin' Disc2
DYEAR=1984
DGENRE=Blues
TTITLE0=Cocaine
TTITLE1=Strange Brew
TTITLE2=Spoonful
TTITLE3=Let It Rain
TTITLE4=Have You Ever Loved A Woman?
TTITLE5=Presence Of The Lord
TTITLE6=Crossroads
TTITLE7=Roll It Over
TTITLE8=Can't Find My Way Home
TTITLE9=Blues Power
TTITLE10=Further On Up The Road
EXTD=YEAR: 1984
EXTT0=
EXTT1=
EXTT2=
EXTT3=
EXTT4=
EXTT5=
EXTT6=
EXTT7=
EXTT8=
EXTT9=
EXTT10=
PLAYORDER=
